<svg width="100" height="109" viewBox="0 0 100 109" fill="none" xmlns="http://www.w3.org/2000/svg">
<rect y="9" width="100" height="100" fill="#FF9100"/>
<path d="M53.224 94.536C47.848 94.536 42.856 93.704 38.248 92.04C33.704 90.312 29.736 87.88 26.344 84.744C23.016 81.608 20.424 77.896 18.568 73.608C16.712 69.32 15.784 64.584 15.784 59.4C15.784 54.216 16.712 49.48 18.568 45.192C20.424 40.904 23.016 37.192 26.344 34.056C29.736 30.92 33.704 28.52 38.248 26.856C42.856 25.128 47.848 24.264 53.224 24.264C59.816 24.264 65.64 25.416 70.696 27.72C75.816 30.024 80.04 33.352 83.368 37.704L69.064 50.472C67.08 47.976 64.872 46.056 62.44 44.712C60.072 43.304 57.384 42.6 54.376 42.6C52.008 42.6 49.864 42.984 47.944 43.752C46.024 44.52 44.36 45.64 42.952 47.112C41.608 48.584 40.552 50.376 39.784 52.488C39.016 54.536 38.632 56.84 38.632 59.4C38.632 61.96 39.016 64.296 39.784 66.408C40.552 68.456 41.608 70.216 42.952 71.688C44.36 73.16 46.024 74.28 47.944 75.048C49.864 75.816 52.008 76.2 54.376 76.2C57.384 76.2 60.072 75.528 62.44 74.184C64.872 72.776 67.08 70.824 69.064 68.328L83.368 81.096C80.04 85.384 75.816 88.712 70.696 91.08C65.64 93.384 59.816 94.536 53.224 94.536Z" fill="white"/>
</svg>
